<svg width="53" height="49" viewBox="0 0 53 49" fill="none" xmlns="http://www.w3.org/2000/svg">
<path d="M37.5417 36.7502C38.7131 36.7502 39.8365 37.1804 40.6648 37.9461C41.493 38.7119 41.9584 39.7505 41.9584 40.8335C41.9584 41.9165 41.493 42.9551 40.6648 43.7208C39.8365 44.4866 38.7131 44.9168 37.5417 44.9168C36.3703 44.9168 35.2469 44.4866 34.4187 43.7208C33.5904 42.9551 33.125 41.9165 33.125 40.8335C33.125 38.5672 35.0905 36.7502 37.5417 36.7502ZM2.20837 4.0835H9.42962L11.5055 8.16683H44.1667C44.7524 8.16683 45.3141 8.38193 45.7282 8.76482C46.1424 9.14771 46.375 9.66701 46.375 10.2085C46.375 10.5556 46.2646 10.9027 46.11 11.2293L38.2042 24.4389C37.4534 25.6843 35.9959 26.5418 34.3396 26.5418H17.8875L15.9 29.8697L15.8338 30.1147C15.8338 30.2501 15.892 30.3799 15.9955 30.4757C16.099 30.5714 16.2395 30.6252 16.3859 30.6252H41.9584V34.7085H15.4584C14.287 34.7085 13.1636 34.2783 12.3353 33.5125C11.507 32.7467 11.0417 31.7081 11.0417 30.6252C11.0417 29.9106 11.2405 29.2368 11.5717 28.6652L14.575 23.6631L6.62504 8.16683H2.20837V4.0835ZM15.4584 36.7502C16.6297 36.7502 17.7531 37.1804 18.5814 37.9461C19.4097 38.7119 19.875 39.7505 19.875 40.8335C19.875 41.9165 19.4097 42.9551 18.5814 43.7208C17.7531 44.4866 16.6297 44.9168 15.4584 44.9168C14.287 44.9168 13.1636 44.4866 12.3353 43.7208C11.507 42.9551 11.0417 41.9165 11.0417 40.8335C11.0417 38.5672 13.0071 36.7502 15.4584 36.7502ZM35.3334 22.4585L41.4725 12.2502H13.5592L18.7709 22.4585H35.3334Z" fill="black"/>
</svg>
