<svg width="33" height="31" viewBox="0 0 33 31" fill="none" xmlns="http://www.w3.org/2000/svg">
<path d="M16.5 -0.00290871C7.40231 -0.00290871 0 4.69074 0 10.4578C0 13.2043 1.88822 16.8566 5.61206 21.3137C8.60269 24.8922 12.0625 28.1282 13.8621 29.7383C14.1661 30.0134 14.5637 30.2372 15.0226 30.3914C15.4814 30.5456 15.9886 30.626 16.5031 30.626C17.0175 30.626 17.5248 30.5456 17.9836 30.3914C18.4425 30.2372 18.84 30.0134 19.1441 29.7383C20.9406 28.1282 24.4035 24.8922 27.3941 21.3137C31.1118 16.858 33 13.2056 33 10.4578C33 4.69074 25.5977 -0.00290871 16.5 -0.00290871Z" fill="#4ECB71"/>
</svg>
