<svg width="39" height="58" viewBox="0 0 39 58" fill="none" xmlns="http://www.w3.org/2000/svg">
<g filter="url(#filter0_d_72_247)">
<path d="M31.8424 33.14L25.3346 28.2311C25.0397 28.0184 24.718 27.9329 24.3986 27.9823C24.0791 28.0317 23.7721 28.2144 23.5051 28.5139C23.4781 28.5432 23.4523 28.5758 23.428 28.6113L20.0267 33.4808C19.9914 33.5132 19.9521 33.5313 19.912 33.5338C19.8718 33.5362 19.8318 33.5228 19.7953 33.4948C17.609 31.7185 15.3443 27.9296 14.2849 24.3007C14.2672 24.24 14.2581 24.1734 14.2581 24.1059C14.2581 24.0384 14.2672 23.9717 14.2849 23.9111L17.1875 18.1141C17.2083 18.0712 17.2276 18.0263 17.2453 17.9796C17.4208 17.5286 17.5268 17.0111 17.5538 16.4739C17.5807 15.9367 17.5277 15.3966 17.3996 14.9025L14.5039 3.96699C14.3395 3.32146 14.0551 2.78311 13.6934 2.43274C13.3318 2.08237 12.9124 1.93889 12.4981 2.02383C10.6979 2.42219 9.04549 3.91027 7.84961 6.20998C6.65373 8.50969 5.99624 11.4637 6.00002 14.5199C6.00002 32.6762 14.7753 47.447 25.5619 47.447C27.3775 47.4529 29.1323 46.346 30.4985 44.3332C31.8647 42.3203 32.7488 39.5392 32.9858 36.5092C33.0361 35.8152 32.952 35.1125 32.746 34.5054C32.54 33.8983 32.2231 33.4195 31.8424 33.14ZM25.5619 44.6645C15.6873 44.6645 7.65313 31.1412 7.65313 14.5199C7.64853 12.1406 8.15872 9.83994 9.08838 8.04766C10.018 6.25538 11.3036 5.09414 12.7048 4.7809H12.7365C12.792 4.78264 12.8459 4.81258 12.8911 4.86678C12.9364 4.92099 12.9708 4.99693 12.9899 5.08466L15.8967 16.0086C15.9133 16.0693 15.9218 16.1354 15.9218 16.2022C15.9218 16.269 15.9133 16.3351 15.8967 16.3958L12.9886 22.2068C12.9669 22.2483 12.9471 22.2924 12.9293 22.3389C12.7474 22.8066 12.6402 23.3453 12.6182 23.9031C12.5963 24.4609 12.6603 25.0187 12.804 25.5227C14.0259 29.7336 16.5469 33.9446 19.0762 36.0014C19.3773 36.242 19.7103 36.3471 20.0428 36.3064C20.3753 36.2658 20.6958 36.0808 20.9731 35.7695C20.9993 35.7394 21.0255 35.7069 21.0503 35.6721L24.4502 30.8026C24.4838 30.7722 24.5208 30.7544 24.5589 30.7504C24.5969 30.7464 24.635 30.7563 24.6706 30.7794L31.1797 35.6883C31.2329 35.7265 31.2776 35.7917 31.3075 35.875C31.3374 35.9582 31.3511 36.0551 31.3464 36.1521C31.1613 38.5118 30.4721 40.6772 29.4075 42.2438C28.343 43.8104 26.9759 44.6709 25.5619 44.6645Z" fill="#4ECB71"/>
<path d="M25.9282 27.4263L25.9368 27.4327L32.44 32.3382C33.0325 32.7756 33.4449 33.4531 33.693 34.184C33.9455 34.9281 34.0423 35.7658 33.9831 36.5816L33.9827 36.5872C33.7356 39.7477 32.8111 42.7065 31.3259 44.8948C29.8434 47.079 27.8157 48.4537 25.5603 48.447M25.9282 27.4263L12.4981 2.02383C10.6979 2.42219 9.04549 3.91027 7.84961 6.20998C6.65373 8.50969 5.99624 11.4637 6.00002 14.5199H5.00002C5.00002 14.5201 5.00002 14.5203 5.00002 14.5205C5.00011 23.7474 7.22782 32.1617 10.8763 38.3029C14.5112 44.4213 19.6725 48.4463 25.5603 48.447M25.9282 27.4263L25.9196 27.42C25.4405 27.0745 24.8581 26.8993 24.2458 26.994C23.6486 27.0864 23.1464 27.4157 22.764 27.8425L25.9282 27.4263ZM25.5603 48.447C25.5597 48.447 25.5592 48.447 25.5587 48.447L25.5619 47.447V48.447C25.5614 48.447 25.5608 48.447 25.5603 48.447ZM25.5664 43.6645H25.5619C21.1198 43.6645 16.914 40.6161 13.7643 35.3144C10.6278 30.035 8.65313 22.6816 8.65313 14.5199L8.65313 14.518C8.64878 12.271 9.13266 10.1341 9.97606 8.50811C10.628 7.2512 11.4177 6.43809 12.2053 6.02487L14.9002 16.1526L12.0977 21.7525C12.0593 21.8268 12.0256 21.9027 11.9962 21.9793C11.7706 22.5603 11.6448 23.2087 11.619 23.8638C11.5932 24.5205 11.6677 25.1847 11.8423 25.7969L11.8436 25.8014C13.1031 30.1417 15.7121 34.5547 18.4453 36.7772L18.4452 36.7773L18.452 36.7827C18.9287 37.1635 19.5241 37.3773 20.1642 37.299C20.7929 37.2222 21.3218 36.8814 21.7198 36.4347L21.7198 36.4348L21.7282 36.4251C21.7708 36.3761 21.8176 36.3184 21.8645 36.2526L21.8646 36.2526L21.8702 36.2446L24.7629 32.1015L30.3301 36.3C30.1302 38.4372 29.4936 40.3379 28.5804 41.6817C27.6328 43.0763 26.5397 43.6689 25.5664 43.6645Z" stroke="#4ECB71" stroke-width="2"/>
</g>
<defs>
<filter id="filter0_d_72_247" x="0" y="-0.000976562" width="39" height="57.4482" filterUnits="userSpaceOnUse" color-interpolation-filters="sRGB">
<feFlood flood-opacity="0" result="BackgroundImageFix"/>
<feColorMatrix in="SourceAlpha" type="matrix" values="0 0 0 0 0 0 0 0 0 0 0 0 0 0 0 0 0 0 127 0" result="hardAlpha"/>
<feOffset dy="4"/>
<feGaussianBlur stdDeviation="2"/>
<feComposite in2="hardAlpha" operator="out"/>
<feColorMatrix type="matrix" values="0 0 0 0 0 0 0 0 0 0 0 0 0 0 0 0 0 0 0.25 0"/>
<feBlend mode="normal" in2="BackgroundImageFix" result="effect1_dropShadow_72_247"/>
<feBlend mode="normal" in="SourceGraphic" in2="effect1_dropShadow_72_247" result="shape"/>
</filter>
</defs>
</svg>
